<?xml version="1.0" encoding="UTF-8"?>
<svg version="1.1" xmlns="http://www.w3.org/2000/svg" width="500" height="500">
<path d="M0 0 C165 0 330 0 500 0 C500 165 500 330 500 500 C335 500 170 500 0 500 C0 335 0 170 0 0 Z " fill="#000000" transform="translate(2,0)"/>
<path d="M0 0 C0.33 0.66 0.66 1.32 1 2 C0.0211416 3.89020932 -0.95936056 5.77959021 -1.94921875 7.6640625 C-4.05280755 12.34044205 -4.64396038 17.46025072 -5.3515625 22.5078125 C-6.8611361 31.95004738 -11.92500621 38.69436496 -17.67578125 46.10546875 C-19.63933275 48.9146796 -20.79935216 51.79827244 -22 55 C-21.2575 54.505 -21.2575 54.505 -20.5 54 C-15.9564868 52.18259472 -11.69686488 52.305828 -7.25 54.125 C-4.37743064 56.5188078 -2.72720323 58.67353452 -1 62 C-0.75 65.875 -0.75 65.875 -1 69 C-3 70 -3 70 -5.375 70.4375 C-7.97818231 70.85356779 -7.97818231 70.85356779 -9.9375 72.125 C-12.93012704 73.39459935 -14.92376045 72.86937205 -18 72 C-20.30163882 68.54754176 -20.34490322 67.05261287 -20 63 C-19.34 62.34 -18.68 61.68 -18 61 C-15.375 61.375 -15.375 61.375 -13 62 C-13 63.32 -13 64.64 -13 66 C-12.67 66 -12.34 66 -12 66 C-11.957279 64.33388095 -11.95936168 62.66617115 -12 61 C-13.04703565 59.74323161 -13.04703565 59.74323161 -15.375 59.75 C-17.98551641 59.77072786 -17.98551641 59.77072786 -19.640625 61.21484375 C-22.25241823 64.64469866 -21.45154308 68.89740859 -21 73 C-18.38092845 81.02090662 -11.17283498 87.93107001 -3.96484375 92.0703125 C-1.03080594 93.45858486 1.83826964 94.27543679 5 95 C4.45783726 97.89153464 3.80814446 100.6207091 2.9375 103.4375 C0.85848245 111.70631981 0.57635945 120.57345018 5 128 C6.95633975 130.41121859 6.95633975 130.41121859 10.625 130.125 C11.73875 130.08375 12.8525 130.0425 14 130 C14 127.36 14 124.72 14 122 C11.52733235 122.34444881 11.52733235 122.34444881 9 123 C8.67 123.66 8.34 124.32 8 125 C9.98 124.505 9.98 124.505 12 124 C12.5625 125.9375 12.5625 125.9375 13 128 C12 129 12 129 9.5625 129.1875 C7 129 7 129 5 127 C4.75 123.5 4.75 123.5 5 120 C7 118 7 118 9.625 117.875 C10.40875 117.91625 11.1925 117.9575 12 118 C12 116.35 12 114.7 12 113 C19.88107822 120.66807611 19.88107822 120.66807611 20.3125 125.5 C19.84320557 130.75609756 19.84320557 130.75609756 18 133 C13.90660598 135.16254779 10.64757754 136.42250705 6 136 C8.10812314 140.17436305 9.82478242 141.82405418 14.125 143.625 C15.10597656 144.04523438 16.08695313 144.46546875 17.09765625 144.8984375 C19.57895179 145.84019435 22.00348855 146.56577234 24.5625 147.25 C33.30605412 150.03417287 39.10266998 157.93030292 44.328125 165.046875 C46.84350986 167.98540871 49.52269463 169.36779544 53 171 C53 171.33 53 171.66 53 172 C38.4994392 173.01758321 25.97962419 167.87375236 15.125 158.5234375 C5.36506088 149.32045143 -2.5917532 137.6817474 -4 124 C-4.02504765 118.59328676 -3.86501078 113.18233661 -3.41381836 107.79418945 C-3.03963003 101.84342816 -3.03963003 101.84342816 -5.85888672 96.84692383 C-8.16434649 95.06841948 -10.52223522 93.52593568 -13 92 C-23.20342217 82.94520868 -29.99987932 73.01130905 -31.38671875 59.12890625 C-32.08666997 43.14604227 -26.31854495 26.83103796 -15.75 14.75 C-10.75964394 9.56140872 -5.40605674 4.74924611 0 0 Z " fill="#F6F6F6" transform="translate(205,130)"/>
<path d="M0 0 C3.67850855 1.70467469 6.99658624 3.90322373 10.375 6.125 C16.3048119 9.97984489 22.3349296 13.57355053 28.5078125 17.02734375 C30.84147993 18.33344262 33.14328027 19.67930181 35.4296875 21.06640625 C46.34964814 27.63295085 57.59800766 32.05762044 70 35 C70 35.66 70 36.32 70 37 C67.41710408 37.81391255 64.83371003 38.62617929 62.25 39.4375 C61.52039063 39.66759766 60.79078125 39.89769531 60.0390625 40.13476562 C59.33007812 40.35712891 58.62109375 40.57949219 57.890625 40.80859375 C57.24125977 41.01282959 56.59189453 41.21706543 55.92285156 41.42749023 C46.57391699 44.21104173 38.68638015 43.59362114 30 39 C27.1089507 37.22213977 24.5557634 35.23002885 22 33 C21.28070313 32.37480469 20.56140625 31.74960937 19.8203125 31.10546875 C11.21712931 23.08277716 4.74466212 12.7270622 0 2 C0 1.34 0 0.68 0 0 Z " fill="#F9F9F9" transform="translate(229,256)"/>
<path d="M0 0 C-0.33 0.66 -0.66 1.32 -1 2 C-1.66 2 -2.32 2 -3 2 C-3.24234375 2.5053125 -3.4846875 3.010625 -3.734375 3.53125 C-9.08410652 13.96652878 -15.40036881 23.76589506 -22.1875 33.3125 C-30.1171504 44.50536794 -36.50350656 54.53524265 -40 68 C-44.5943686 63.4056314 -43.35986716 52.71664874 -43.38500977 46.43774414 C-43.16847665 34.30135581 -39.21635769 23.12928632 -31 14 C-22.83069195 6.17333401 -11.40472775 -0.25919836 0 0 Z " fill="#F7F7F7" transform="translate(245,118)"/>
<path d="M0 0 C2.72814575 1.36407288 2.71507482 2.64872618 3.6875 5.5 C7.7845773 15.99689147 14.77039621 21.87142551 24 28 C24.99 28.66 25.98 29.32 27 30 C27.42113854 36.52764742 27.42113854 36.52764742 26.49609375 39.76171875 C25.74888168 43.13299841 25.80944796 46.50128358 25.8125 49.9375 C25.81185547 50.68443115 25.81121094 51.4313623 25.81054688 52.20092773 C25.87374978 58.94137352 26.71017343 65.37812251 28 72 C17.81456819 64.25085304 15.16002226 56.50354346 13 44 C12.40832031 44.33257812 11.81664062 44.66515625 11.20703125 45.0078125 C7.83152516 46.52529665 5.55654734 45.84392649 2 45 C-0.4683688 43.81383834 -2.67797338 42.46903725 -5 41 C-3.83799225 32.88328912 -3.83799225 32.88328912 -0.6875 29.5625 C1.83163908 28.09788426 4.24556671 26.94437713 7 26 C6.236875 25.175 5.47375 24.35 4.6875 23.5 C-0.87895196 16.71588668 -1.78821828 9.62492698 -1 1 C-0.67 0.67 -0.34 0.34 0 0 Z " fill="#F8F8F8" transform="translate(172,200)"/>
<path d="M0 0 C1.62304501 4.86913503 -0.85190061 8.52946272 -3 13 C-9.38947769 24.87854118 -19.82277888 38.60759296 -33 43 C-44.37669508 44.85150136 -56.74632968 39.18088666 -66 33 C-66.33 32.34 -66.66 31.68 -67 31 C-66.41734375 30.94054199 -65.8346875 30.88108398 -65.234375 30.81982422 C-38.78011039 27.99658018 -18.98289783 19.35577618 0 0 Z " fill="#F7F7F7" transform="translate(336,243)"/>
<path d="M0 0 C1.11117187 0.30679688 2.22234375 0.61359375 3.3671875 0.9296875 C10.43012632 3.05884785 16.76637736 5.6779821 23.125 9.4375 C23.74004395 9.79658447 24.35508789 10.15566895 24.98876953 10.52563477 C29.20845825 13.13862721 31.9914515 16.05482792 35 20 C32.47878568 19.37650642 29.95803069 18.75124639 27.4375 18.125 C26.73302734 17.95097656 26.02855469 17.77695313 25.30273438 17.59765625 C21.99726767 16.77509771 18.73385714 15.91924347 15.47265625 14.9296875 C0.69023557 10.97218905 -18.42167774 11.21248259 -32.6640625 17.1015625 C-35 18 -35 18 -39 18 C-36.39498977 9.66396726 -30.29954267 3.49801243 -23 -1 C-15.58198409 -3.47267197 -7.36384156 -2.13934235 0 0 Z " fill="#F7F7F7" transform="translate(276,121)"/>
<path d="M0 0 C1.65 0 3.3 0 5 0 C6.58203125 1.6796875 6.58203125 1.6796875 7.8125 3.875 C8.44091797 4.95394531 8.44091797 4.95394531 9.08203125 6.0546875 C10 8 10 8 10 10 C10.66 10 11.32 10 12 10 C12.268125 9.278125 12.53625 8.55625 12.8125 7.8125 C14.02618879 4.93797393 15.08983806 2.47613585 17 0 C18.65 0 20.3 0 22 0 C22 8.25 22 16.5 22 25 C20.35 25 18.7 25 17 25 C16.505 18.565 16.505 18.565 16 12 C14.68 14.31 13.36 16.62 12 19 C9.16763009 16.35645475 7.78155733 14.56311466 6 11 C5.67 15.62 5.34 20.24 5 25 C3.35 25 1.7 25 0 25 C0 16.75 0 8.5 0 0 Z " fill="#F1F1F1" transform="translate(291,195)"/>
<path d="M0 0 C1.98 0 3.96 0 6 0 C6.33 6.27 6.66 12.54 7 19 C8.65 19.33 10.3 19.66 12 20 C13.54950268 18.45049732 13.21655193 16.90009406 13.31640625 14.74609375 C13.35830078 13.89208984 13.40019531 13.03808594 13.44335938 12.15820312 C13.48267578 11.26037109 13.52199219 10.36253906 13.5625 9.4375 C13.60568359 8.53580078 13.64886719 7.63410156 13.69335938 6.70507812 C13.79978142 4.47021515 13.90179988 2.23523692 14 0 C15.98 0 17.96 0 20 0 C20.10852923 2.87602455 20.1875515 5.74790832 20.25 8.625 C20.30027344 9.83736328 20.30027344 9.83736328 20.3515625 11.07421875 C20.44352146 16.72969459 19.61882897 19.62149319 16 24 C14.35710804 25.64289196 12.51039721 25.32715517 10.25 25.4375 C9.38890625 25.49808594 8.5278125 25.55867188 7.640625 25.62109375 C4.47059871 24.87548106 2.9014206 23.53359561 0.95068359 20.94067383 C-0.90040286 17.16196653 -0.51383347 13.2383976 -0.3125 9.125 C-0.28994141 8.24585938 -0.26738281 7.36671875 -0.24414062 6.4609375 C-0.18559748 4.30654993 -0.09592783 2.1530469 0 0 Z " fill="#E2E2E2" transform="translate(260,195)"/>
<path d="M0 0 C0.66 0.33 1.32 0.66 2 1 C2 2.98 2 4.96 2 7 C-1.63 6.34 -5.26 5.68 -9 5 C-7.5464262 9.02217019 -7.5464262 9.02217019 -5.16015625 9.72265625 C-4.46792969 9.83480469 -3.77570313 9.94695312 -3.0625 10.0625 C-0.65104204 10.57455187 0.89335839 10.93334899 3 12.25 C4.59425373 15.03994402 4.50421465 16.84865842 4 20 C2.1875 22.875 2.1875 22.875 -1 25 C-5.31093399 25.5466314 -10.03560672 25.98219664 -14 24 C-14 21.69 -14 19.38 -14 17 C-13.525625 17.495 -13.05125 17.99 -12.5625 18.5 C-8.79641649 20.70453669 -5.26540621 20.24608113 -1 20 C-1 18.68 -1 17.36 -1 16 C-2.03060547 15.85304687 -2.03060547 15.85304687 -3.08203125 15.703125 C-3.98308594 15.55359375 -4.88414062 15.4040625 -5.8125 15.25 C-6.70582031 15.11078125 -7.59914063 14.9715625 -8.51953125 14.828125 C-11.55669192 13.8141438 -12.42767356 12.74775495 -14 10 C-14.5 7 -14.5 7 -14 4 C-10.13707049 -0.73520391 -5.68925578 -0.68181651 0 0 Z " fill="#EAEAEA" transform="translate(356,195)"/>
<path d="M0 0 C0.99 0.33 1.98 0.66 3 1 C3 2.65 3 4.3 3 6 C-0.3 5.67 -3.6 5.34 -7 5 C-7 6.32 -7 7.64 -7 9 C-5.96939453 9.16435547 -5.96939453 9.16435547 -4.91796875 9.33203125 C-4.01691406 9.49058594 -3.11585938 9.64914063 -2.1875 9.8125 C-1.29417969 9.96332031 -0.40085937 10.11414063 0.51953125 10.26953125 C3.22745933 11.06698409 4.31742918 11.76201745 6 14 C6.67678396 17.89150777 6.30269678 19.51986027 4.1875 22.875 C-0.40189912 25.93459941 -4.62502477 25.60587482 -10 25 C-10.66 24.67 -11.32 24.34 -12 24 C-12 21.69 -12 19.38 -12 17 C-11.67 17.66 -11.34 18.32 -11 19 C-8.94443781 19.50585698 -8.94443781 19.50585698 -6.5625 19.6875 C-5.75941406 19.77386719 -4.95632813 19.86023438 -4.12890625 19.94921875 C-1.94487686 20.16761148 -1.94487686 20.16761148 0 19 C0.33 18.01 0.66 17.02 1 16 C-0.03060547 15.83564453 -0.03060547 15.83564453 -1.08203125 15.66796875 C-1.98308594 15.50941406 -2.88414062 15.35085937 -3.8125 15.1875 C-4.70582031 15.03667969 -5.59914063 14.88585937 -6.51953125 14.73046875 C-9.2379946 13.9299134 -10.33534442 13.26998488 -12 11 C-12.49125459 7.14014247 -12.56021138 4.91034349 -10.5 1.5625 C-6.80761015 -0.74524365 -4.32676915 -0.34339438 0 0 Z " fill="#EEEEEE" transform="translate(406,195)"/>
<path d="M0 0 C1.20317001 3.48031057 0.76852151 5.58376255 -0.3125 9.0625 C-4.01407126 21.07003604 -4.1670109 32.3330063 -3.83398438 44.81835938 C-3.71274373 53.02509709 -4.55126508 60.15472498 -7 68 C-10.39405847 62.9089123 -9.34409019 56.78419871 -9.3125 50.8125 C-9.31100952 50.1304953 -9.30951904 49.4484906 -9.3079834 48.74581909 C-9.26748378 38.49412578 -8.64125707 28.95207831 -6 19 C-5.65877009 17.61883131 -5.31897603 16.23730725 -4.98046875 14.85546875 C-2.26674837 4.07007263 -2.26674837 4.07007263 0 0 Z " fill="#F3F3F3" transform="translate(172,165)"/>
<path d="M0 0 C7.83679913 3.91839957 11.78078251 9.27207315 16.8125 16.3125 C23.81632087 25.98067457 31.48173453 33.49322542 40.9609375 40.65234375 C43.16765706 42.35702043 45.12502956 43.95641711 47 46 C28.41264514 40.70890931 11.15889572 19.24406985 0.92578125 3.70703125 C0 2 0 2 0 0 Z " fill="#ECECEC" transform="translate(170,247)"/>
<path d="M0 0 C5.61 0 11.22 0 17 0 C17 1.65 17 3.3 17 5 C15.02 5 13.04 5 11 5 C11 11.6 11 18.2 11 25 C9.35 25 7.7 25 6 25 C6 18.4 6 11.8 6 5 C4.02 5 2.04 5 0 5 C0 3.35 0 1.7 0 0 Z " fill="#F1F1F1" transform="translate(368,195)"/>
<path d="M0 0 C1.98 0 3.96 0 6 0 C6 6.6 6 13.2 6 20 C7.98 20 9.96 20 12 20 C12 21.65 12 23.3 12 25 C8.04 25 4.08 25 0 25 C0 16.75 0 8.5 0 0 Z " fill="#DFDFDF" transform="translate(239,195)"/>
<path d="M0 0 C1.35902931 2.71805862 1 4.96915383 1 8 C1.309375 9.5159375 1.309375 9.5159375 1.625 11.0625 C2.06031577 14.4724735 1.29563469 15.87523399 0 19 C-0.25063732 22.66714849 -0.25063732 22.66714849 0 26 C1.06645115 27.29633621 1.06645115 27.29633621 3.5625 27.0625 C4.7690625 27.0315625 4.7690625 27.0315625 6 27 C6 26.01 6 25.02 6 24 C4.68 24 3.36 24 2 24 C2.33 23.01 2.66 22.02 3 21 C4.65 21 6.3 21 8 21 C9.36623674 23.73247348 9.128426 25.98198902 9 29 C8 30 8 30 4.75 30.4375 C0.45173029 29.9360352 0.45173029 29.9360352 -1.875 27.1875 C-4.93357434 22.59963849 -5.13645719 19.54425036 -5.125 14.125 C-5.12757813 12.91070312 -5.13015625 11.69640625 -5.1328125 10.4453125 C-5.01798112 7.46645147 -4.83084305 4.85830909 -4 2 C-1.9375 0.6875 -1.9375 0.6875 0 0 Z " fill="#0B0B0B" transform="translate(211,231)"/>
<path d="M0 0 C1.98 0 3.96 0 6 0 C6 8.25 6 16.5 6 25 C4.02 25 2.04 25 0 25 C0 16.75 0 8.5 0 0 Z " fill="#DCDCDC" transform="translate(325,195)"/>
<path d="M0 0 C1.65 0 3.3 0 5 0 C6.36623674 2.73247348 6.128426 4.98198902 6 8 C5 9 5 9 1.6875 9.3125 C-2 9 -2 9 -4.5 7.25 C-6 5 -6 5 -5.75 2.75 C-5.5025 2.1725 -5.255 1.595 -5 1 C-4.690625 1.639375 -4.38125 2.27875 -4.0625 2.9375 C-3.1654837 4.93610821 -3.1654837 4.93610821 -2 6 C-0.33382885 6.04063832 1.33388095 6.042721 3 6 C3 5.01 3 4.02 3 3 C1.68 3 0.36 3 -1 3 C-0.67 2.01 -0.34 1.02 0 0 Z " fill="#181818" transform="translate(214,252)"/>
<path d="M0 0 C1.796875 0.15234375 1.796875 0.15234375 4 1 C5.703125 3.50390625 5.703125 3.50390625 7.25 6.5625 C8.03117188 8.08037109 8.03117188 8.08037109 8.828125 9.62890625 C9.21484375 10.41136719 9.6015625 11.19382813 10 12 C5.6068317 10.38301873 2.99820692 8.68351136 0 5 C-0.3125 2.1875 -0.3125 2.1875 0 0 Z " fill="#F0F0F0" transform="translate(194,207)"/>
<path d="M0 0 C1.24769691 3.5517772 0.72044302 5.75984764 -0.375 9.3125 C-1.62416602 13.56765 -2.51085213 17.59766917 -3 22 C-3.99 21.67 -4.98 21.34 -6 21 C-3.10933941 6.21867882 -3.10933941 6.21867882 0 0 Z " fill="#CDCDCD" transform="translate(172,165)"/>
<path d="M0 0 C1.2065625 0.0309375 1.2065625 0.0309375 2.4375 0.0625 C3.0625 2.4375 3.0625 2.4375 3.4375 5.0625 C2.7775 5.7225 2.1175 6.3825 1.4375 7.0625 C0.1175 7.0625 -1.2025 7.0625 -2.5625 7.0625 C-2.94383299 5.0710944 -3.27575582 3.06970923 -3.5625 1.0625 C-2.5625 0.0625 -2.5625 0.0625 0 0 Z " fill="#F2F2F2" transform="translate(196.5625,171.9375)"/>
<path d="M0 0 C4.00538721 1.38537586 6.85703014 3.25416695 10.125 5.9375 C10.97320312 6.62714844 11.82140625 7.31679688 12.6953125 8.02734375 C14.55704338 9.62085917 16.30525837 11.23325954 18 13 C13.09732876 11.64550825 9.66284679 9.57075756 5.625 6.5 C5.07972656 6.09652344 4.53445312 5.69304687 3.97265625 5.27734375 C2.60550273 4.23912942 1.29686247 3.12478686 0 2 C0 1.34 0 0.68 0 0 Z " fill="#D9D9D9" transform="translate(199,280)"/>
<path d="M0 0 C2.5 0.25 2.5 0.25 4.5 2.25 C4.625 4.875 4.625 4.875 4.5 7.25 C2.52 8.24 2.52 8.24 0.5 9.25 C0.17 8.59 -0.16 7.93 -0.5 7.25 C0.49 7.25 1.48 7.25 2.5 7.25 C2.17 5.93 1.84 4.61 1.5 3.25 C-0.15 3.58 -1.8 3.91 -3.5 4.25 C-3.83 5.9 -4.16 7.55 -4.5 9.25 C-5.16 8.26 -5.82 7.27 -6.5 6.25 C-3.75874126 0.37587413 -3.75874126 0.37587413 0 0 Z " fill="#353535" transform="translate(189.5,188.75)"/>
<path d="M0 0 C2.125 0.375 2.125 0.375 4 1 C4.625 2.875 4.625 2.875 5 5 C4.34 5.66 3.68 6.32 3 7 C0.875 6.625 0.875 6.625 -1 6 C-1.625 4.125 -1.625 4.125 -2 2 C-1.34 1.34 -0.68 0.68 0 0 Z " fill="#EAEAEA" transform="translate(226,265)"/>
<path d="M0 0 C0.33 0 0.66 0 1 0 C3.42857143 8.42857143 3.42857143 8.42857143 2 13 C1.01 13 0.02 13 -1 13 C-1.02708567 11.39592672 -1.04643483 9.7917215 -1.0625 8.1875 C-1.07410156 7.29417969 -1.08570313 6.40085938 -1.09765625 5.48046875 C-1 3 -1 3 0 0 Z " fill="#EDEDED" transform="translate(210,233)"/>
<path d="M0 0 C0.33 0.66 0.66 1.32 1 2 C0.34 2 -0.32 2 -1 2 C-1.33 5.63 -1.66 9.26 -2 13 C-2.99 13 -3.98 13 -5 13 C-4.94004678 11.20739868 -4.8512759 9.41574205 -4.75 7.625 C-4.70359375 6.62726563 -4.6571875 5.62953125 -4.609375 4.6015625 C-4 2 -4 2 -1.953125 0.6484375 C-1.30859375 0.43445313 -0.6640625 0.22046875 0 0 Z " fill="#383838" transform="translate(211,231)"/>
</svg>
